<?xml version="1.0" encoding="utf-8"?>
<!-- Generator: Adobe Illustrator 19.0.0, SVG Export Plug-In . SVG Version: 6.00 Build 0)  -->
<svg version="1.1" id="Background" xmlns="http://www.w3.org/2000/svg" xmlns:xlink="http://www.w3.org/1999/xlink" x="0px" y="0px"
	 viewBox="0 0 329 345.4" style="enable-background:new 0 0 329 345.4;" xml:space="preserve">
<style type="text/css">
	.st0{fill:#FA5977;}
	.st1{fill:#CECECE;}
	.st2{fill:#515151;}
	.st3{fill:#FFBE57;}
	.st4{fill:#494646;}
	.st5{fill:#394949;}
	.st6{fill:#BFBFBF;}
	.st7{fill:#020202;}
	.st8{fill:#FCB685;}
	.st9{fill:#5E3920;}
	.st10{fill:#FEFEFE;}
	.st11{fill:#FCB686;}
	.st12{fill:#FFAE00;}
	.st13{fill:#5B5B5B;}
	.st14{fill:#040404;}
	.st15{fill:none;stroke:#787A7D;stroke-width:2;stroke-miterlimit:10;}
	.st16{fill:#090A0A;}
</style>
<path class="st0" d="M79.1,255.7c-0.5-0.9-12-11.7,6-31s67-85,158.3-129.3c42.3-18.6,75-32.5,82.3-26.3c5.3,4.5-34.2,67.9-38,72.6
	c-6.7,8.4-54,69.1-112,107.1s-64,35-68.3,35.7C103.1,285.1,82.2,261.7,79.1,255.7z"/>
<path class="st1" d="M325.7,69.1c-6.7-5.7-35.1,5.7-72.7,22.1c12.2,12.1,28,28.1,40.9,41.2C305.8,113.4,329.9,72.6,325.7,69.1z"/>
<path class="st2" d="M262.6,130.6l-6.2,1.3c-3.3,0.7-5.5,4-4.8,7.3c0.7,3.3,4,5.5,7.3,4.8l6.2-1.3c3.3-0.7,5.5-4,4.8-7.3
	C269.2,132,265.9,129.9,262.6,130.6z M263.9,141.1l-4.4,0.9c-2.4,0.5-4.7-1-5.2-3.4c-0.5-2.4,1-4.7,3.4-5.2l4.4-0.9
	c2.4-0.5,4.7,1,5.2,3.4C267.7,138.3,266.2,140.6,263.9,141.1z"/>
<path class="st2" d="M300.8,171.9c0.5,2.5-1.5,3.1-4,3.7l-53.7,11.3c-2.5,0.5-4.6,0.7-5.1-1.8l-7.4-35.2c-0.5-2.5,1.1-5,3.6-5.5
	l53.7-11.3c2.5-0.5,5,1.1,5.5,3.6L300.8,171.9z"/>
<path class="st3" d="M266.8,149c0.4,1.9-0.8,3.7-2.7,4.1l0,0c-1.9,0.4-3.7-0.8-4.1-2.7l-0.7-3.5c-0.4-1.9,0.8-3.7,2.7-4.1l0,0
	c1.9-0.4,3.7,0.8,4.1,2.7L266.8,149z"/>
<path class="st0" d="M117.8,194.5c0,0-33-18.8-74.5,35c-29.2,39-27,37.5-27,37.5s39.5-27.5,59-29L117.8,194.5z"/>
<path class="st0" d="M159.9,237.5c0,0,19.1,32.8-34.2,74.9C87,342,88.5,339.7,88.5,339.7s27.1-39.8,28.4-59.3L159.9,237.5z"/>
<path class="st1" d="M115.7,190.5c-14.3,15.1-24.4,27.5-30.6,34.3c-18,19.3-6.5,30.1-6,31c3.1,6,24,29.3,28.3,28.7
	c4.2-0.6,10,2.1,63.3-32.4C152.1,231.2,129.6,206,115.7,190.5z"/>
<path class="st4" d="M169.7,121.7c0,0-4.1,9.6-4.6,10.5s9.1,1,9.1,1l1.4-13.2L169.7,121.7z"/>
<g>
	<path class="st5" d="M200.2,63.5c6.2-1.6,11.6-5.1,16.9-8.7c8.5-5.7,17.1-11.4,25.6-17.1c1.8-1.2,7.8-5,8-7.1
		c0.1-1-4.3,0.3-4.7-0.7c-0.6-1.7-1.2-3.4-1.8-5.1c-0.9-2.5-2-5.2-4.5-6c-2.3-0.7-4.6,0.6-6.7,1.9c-14.6,9.1-29.3,18.2-43.9,27.3
		c-0.4,0.2-0.8,0.5-1,0.9c-0.3,0.8,0.2,1.6,0.7,2.3c3.6,4.9,6.3,10.4,8,16.1c1.4-0.7,2.5-2,2.9-3.6"/>
</g>
<g>
	<path class="st6" d="M154.8,112.4c-1.3-0.7-3-0.5-4.3,0.1c-1.4,0.6-2.5,1.7-3.6,2.7c-7.3,6.7-14.7,13.7-18.8,22.7
		c4.2,2.6,9.2,3.7,14.2,3.8c5,0.2,10.1,1.8,15,1.1c2-0.3,3.9-2.8,5.5-4.1c1-0.8,1.7-2,2.3-3.1c1-1.8,2-3.6,2.9-5.5
		c0.9-1.9,1.9-3.8,2.2-5.9c0.7-4.2-0.9-8.6-4.2-11.3c-3.2-2.7-8-3.5-11.9-2c-2.4,0.9-4.5,2.6-6.5,4.3"/>
</g>
<path class="st7" d="M165.5,210.6c0,0-7,8.5-6.1,10.6s7.1,8.1,8.4,7.4s2.4-3.2,4.2-3s2.5,3.6,4.2,5.9s9.4,8.4,15.1,9
	s2.1-4.2,2.1-4.2s-9.5-7.9-10-10.7s-0.8-7.2,0-8.6s-17.3-7.8-17.3-7.8L165.5,210.6z"/>
<g>
	<path class="st8" d="M191.9,24.4c0.5,3.5,1.9,6.8,4.1,9.5c1.8,2.3,4.2,4.1,5.4,6.8c0.9,2.1,3.2,5.4,2.9,7.6
		c-0.2,2.1-1.5,3.1-4.2,4.7c-1.8,1-3.8,2.2-5.6,1.2c3.2,5.2,5,11.3,5,17.4c0,1.4-0.1,3-1,4.1c-0.9,1.1-2.3,1.5-3.7,1.8
		c-4.7,1-9.6,1.1-14.4,0.4c-2.6-0.4-5.2-1-7.6-2.1c-2.2-1-4.1-2.4-6.1-3.9c-2.6-1.9-5.2-3.9-7.1-6.4c-1.8-2.3-3-5.1-4-7.8
		c-1.6-4.5-2.7-9.3-2.7-14.1c0-9.6,4.9-19.1,12.7-24.8c6.3-4.6,15-6.6,22-3.2c1.7,0.8,3.3,2,4.2,3.6c1,1.6,1.2,3.7,0.2,5.3"/>
</g>
<path class="st9" d="M185.7,3.3c0,0-0.5,2.2-2.7,4c-2.2,1.8-7.2,3.2-27,3.1c-19.8-0.1-13.4,41.8-6.2,49.2c1.1,1.4,1.3,2.8,0.8,3.3
	c-0.6,0.6,2.2,4.2,5.3,3.2c3.2-0.9,5.3-2.7,6.6-7.7c0.3-2.2-2.8-5.8-3.4-7.6c-0.7-1.8-2.8-7.8-0.4-9.3s4.4-0.2,5.2,0.5
	s3.2,7.7,4.2,8.4s4-0.8,4.2-1.4c0.2-0.6-3.1-0.8-6.2-8.3c-3.2-7.5-4.1-9.8-0.1-12.8s18.7-5.7,25.4-4.8c6.8,0.8,10.2-5.2,9.2-7.7
	S188.6,0.8,186.8,2.1C185.9,2.7,185.7,3.3,185.7,3.3z"/>
<path class="st5" d="M119.1,144.2c0,0.8-5,23.3,10.2,28s54.8-0.2,56.7-2.2c1.8-2-22.5,37.5-20.5,40s13.5,12.3,19.3,8.8
	s33.3-58.5,32.2-66.2c-1.2-7.7-5.2-9.8-17.8-9.8c-12.7,0-35.1,5.2-37.7,3.3c-1.9-1.4-0.8-2.7-0.6-5c0.3-3.5-13.3,1.5-31.4-7.8
	C112.3,124.6,119.1,144.2,119.1,144.2z"/>
<path class="st8" d="M238.3,119.5c0,0,2.2,1.6,4.4,0.9s6.5-4.4,10-4.8s5.9-2.4,6.5-0.9s0.1,2-1.4,2.6s-3.4,0.9-3.1,2.4
	s1.2,1.6,4.1,1.9s10.9,2,11.8,2.9s0.4,3.1-0.6,5s-0.8,3.4-2.4,4.2c0,0-0.2,1.4-1.6,2.2c0,0-0.4,1.2-2,1.6c0,0,0.6,1.5-0.9,2.4
	s-2.5,2-20.9-4.2c0,0-2.4-0.6-3.9-0.5S238.3,119.5,238.3,119.5z"/>
<path class="st10" d="M234.4,117.7c0,0,6.5-0.4,8.6,0.8c2.1,1.2,0.1,18.6-1.9,18.6s-8.2,0.4-9.5-0.9S231.8,117.4,234.4,117.7z"/>
<path class="st11" d="M243.8,16.6c0,0,1.3-0.7,5-3.2s18-11.5,24-13.2c0,0,2.3-1,2.3,1s-10.8,6.5-10.2,8c0.7,1.5,0.8,3.5,2.3,4.7
	s2,2,1.2,3.5c-0.8,1.5,0.5,3-0.2,4.3s-10.5,6.2-13.5,6.5s-4.5,1.5-4.5,1.5L243.8,16.6z"/>
<g>
	<path class="st10" d="M239,17.6c1.5-0.9,3.1-1.6,4.6-2.3c2-0.9,3.3-0.2,3.9,0.8c2.1,3.6,4.5,8.1,6.5,11.8c1,1.8-0.3,2.6-0.8,3
		c-0.4,0.3-2.7,1.8-3.6,2.3c-0.6,0.4-2.5,2.2-2.8,1.6c-1.6-2.5-9.7-15.4-9.9-15.6c-0.3-0.5,0.1-0.6,0.6-0.9
		C238,18,239,17.6,239,17.6"/>
</g>
<path class="st12" d="M4.6,335.8C79,325,86,288.4,86,288.4L77,277.4l-0.1-0.1L68,266.2c0,0-37.2-0.9-63.5,69.5l-0.2,0.1
	c0,0,0.1,0,0.1,0c0,0,0,0.1,0,0.1L4.6,335.8z"/>
<path class="st13" d="M80.1,254.8l18.5,22.7c0,0-13.8,25.2-16,26s-11.8-2-20.8-13.8s-10.5-22.5-10.5-22.5L80.1,254.8z"/>
<path class="st14" d="M146.8,138.9c0,0,6.9,0.4,7.9,0.7s0.2,8.3-0.6,8.8s-10.2-0.6-11.6-0.6C141.9,147.8,146.1,139,146.8,138.9z"/>
<path class="st14" d="M130.8,134.9c0,0-4.8,4.3-4.9,5.5s11,6.6,13,6.7c0.8,0,5.6-8.1,4.7-8.7C142.4,137.5,133,135.1,130.8,134.9z"/>
<path class="st15" d="M155.2,141.8c0.4-0.8,3.4-1.7,5.4-0.6c1.4,1.2,1.1,4.7,0.6,5.1c-1,0.9-2.6,1.6-5.3,1
	C154.1,146.3,154.8,142.6,155.2,141.8z"/>
<path class="st16" d="M155.6,142.3c0.4-0.7,2.9-1.5,4.7-0.5c1.3,1,0.9,4.1,0.5,4.5c-0.9,0.8-2.3,1.4-4.7,0.9
	C154.6,146.2,155.2,143,155.6,142.3z"/>
<g>
	<path class="st5" d="M180.5,77c-0.4-0.5-1-0.9-1.5-1.4c-0.4-0.4-0.8-0.9-1.2-1.3c-3.1-3.4-7.2-5.9-11.5-7.3
		c-1.6-0.5-3.2-0.9-4.8-0.5l-0.2,0c-4.5,1.8-8.8,4.4-12.3,7.8c-7.8,7.3-11.8,17.7-17.7,26.7c-1.2,1.8-2.4,3.5-3.9,5
		c-1.4,1.4-3,2.5-4.5,3.7c-7.5,5.9-15.8,11.3-24.9,14.4l-0.1,0.2c-1.1,1.1-0.6,3,0.1,4.4c3.3,6.7,8.3,12.6,14.5,16.9
		c1.4,1,4.3,2.3,5.9,2.5c2.9,0.2,7.3-1.7,9.4-3.6c7.7-7,12.9-11.8,20.9-18.4c1.5-1.2,3.2-3.2,4.9-4.7c2-1.8,5.6-6,8-7.3l0.1-0.1
		c2.3-0.5,4.5,3.7,6.8,5.7c2.4,2.2,3.8,4.1,6.5,5.6c2.6,1.5,5.8,2.6,8.4,3.3c2.8,0.7,4.4,1.3,7.3,1.7c9.7,1.6,19.7,2.9,29.4,4.4
		c3,0.5,10.1,2.2,12.5,1.7c4.3-0.8,3.5-10.2,4-14.5c0.1-0.7,0.1-2.3-0.1-3.1c-0.5-1.3-15.5-2.3-24-4.4c-8.3-2-19.5-1.5-28-10.5
		c-1.7-1.8-4-4.7-5.4-6.8c-1-1.5-3-7.7-2.2-9.9c0.7-1.8,2.3-3.1,3.3-4.7c1.1-1.6,1.4-4.1-0.1-5.2"/>
</g>
<path class="st0" d="M97.3,84.4c0,0,12.8-5.4,16.2-4.6s6.1,1.8,9.2,2.3s38.5,1.5,40.8,1.6c4.7,0.3,12.2,5,13.5,5.8s2.1-9.9,1.9-10.8
	s2.1,0.2,2.6,1.5s0.6,9.2-1.2,10.5s-1,1.6-3,2s-10.5-3.8-18.5-2.8s-24.8,4.4-29.9,4.2s-17.5,2.9-24.2-2.5S97.3,84.4,97.3,84.4z"/>
</svg>
